<svg xmlns="http://www.w3.org/2000/svg" viewBox="0 0 64 64" role="img" aria-labelledby="title desc">
  <title id="title">Guido Appoldt favicon</title>
  <desc id="desc">Pixel-style GA monogram with purple structural lines and neon green digital punctuation.</desc>
  <rect width="64" height="64" fill="#FFFFFF"/>
  <path d="M4 4H60V60H4Z" fill="none" stroke="#0A0A0A" stroke-width="4"/>
  <path d="M4 18H22M42 4V18M42 46H60M18 60V48" fill="none" stroke="#C4B5FD" stroke-width="2"/>
  <rect x="51" y="9" width="6" height="6" fill="#39FF14"/>
  <rect x="8" y="13" width="23" height="5" fill="#0A0A0A"/>
  <rect x="8" y="18" width="5" height="28" fill="#0A0A0A"/>
  <rect x="8" y="41" width="23" height="5" fill="#0A0A0A"/>
  <rect x="26" y="31" width="5" height="15" fill="#0A0A0A"/>
  <rect x="19" y="31" width="12" height="5" fill="#0A0A0A"/>
  <rect x="36" y="18" width="5" height="28" fill="#7C3AED"/>
  <rect x="51" y="18" width="5" height="28" fill="#7C3AED"/>
  <rect x="41" y="13" width="10" height="5" fill="#7C3AED"/>
  <rect x="41" y="29" width="10" height="5" fill="#7C3AED"/>
  <path d="M34 51L44 41" stroke="#39FF14" stroke-width="4" stroke-linecap="square"/>
</svg>
